{"title":"Lottery.Ticket.2010.DvdRip.x264.LKRG","uid":5922987,"size":729922291,"categoryP":"video","categoryS":"movies","magnet":"?xt=urn:btih:3de0bc3b2316ba2657e758dcde60de7ac74cb41b&amp;dn=Lottery.Ticket.2010.DvdRip.x264.LKRG&amp;tr=udp%3A%2F%2Ftracker.openbittorrent.com%3A80&amp;tr=udp%3A%2F%2Fopen.demonii.com%3A1337&amp;tr=udp%3A%2F%2Ftracker.coppersurfer.tk%3A6969&amp;tr=udp%3A%2F%2Fexodus.desync.com%3A6969","seeders":2,"leechers":0,"uploader":"hiest","files":-1,"time":1288493133,"description":"PLOT:\n\n\nKevin Carson (Bow Wow), a young man living in the projects, dreams of having his life changed by winning the lottery -- as do all his neighbors -- but when Kevin finally hits it big, he must keep his good luck secret until he can claim the prize. Thrilled to be in possession of the $370 million ticket, Kevin endeavors to keep his scheming and sometimes hostile neighbors at bay in this uproarious comedy co-starring Ice Cube.\n\n\n\nINFO:\n\nVideo\nID : 1\nFormat : AVC\nFormat/Info : Advanced Video Codec\nFormat profile : &lt;a class=&quot;__cf_email__&quot; href=&quot;/cdn-cgi/l/email-protection&quot; data-cfemail=&quot;97daf6fef9d7dba4b9a7&quot;&gt;[email&amp;#160;protected]&lt;/a&gt;&lt;script cf-hash='f9e31' type=&quot;text/javascript&quot;&gt;\n/* &lt;![CDATA[ */!function(){try{var t=&quot;currentScript&quot;in document?document.currentScript:function(){for(var t=document.getElementsByTagName(&quot;script&quot;),e=t.length;e--;)if(t[e].getAttribute(&quot;cf-hash&quot;))return t[e]}();if(t&amp;&amp;t.previousSibling){var e,r,n,i,c=t.previousSibling,a=c.getAttribute(&quot;data-cfemail&quot;);if(a){for(e=&quot;&quot;,r=parseInt(a.substr(0,2),16),n=2;a.length-n;n+=2)i=parseInt(a.substr(n,2),16)^r,e+=String.fromCharCode(i);e=document.createTextNode(e),c.parentNode.replaceChild(e,c)}}}catch(u){}}();/* ]]&gt; */&lt;/script&gt;\nFormat settings, CABAC : Yes\nFormat settings, ReFrames : 2 frames\nCodec ID : avc1\nCodec ID/Info : Advanced Video Coding\nDuration : 1h 39mn\nBit rate mode : Variable\nBit rate : 825 Kbps\nWidth : 720 pixels\nHeight : 356 pixels\nDisplay aspect ratio : 2.35:1\nFrame rate mode : Variable\nFrame rate : 23.976 fps\nMinimum frame rate : 14.985 fps\nMaximum frame rate : 90.909 fps\nColor space : YUV\nChroma subsampling : 4:2:0\nBit depth : 8 bits\nScan type : Progressive\nBits/(Pixel*Frame) : 0.134\nStream size : 581 MiB (83%)\nWriting library : x264 core 79\n\nAudio\nID : 2\nFormat : AAC\nFormat/Info : Advanced Audio Codec\nFormat version : Version 4\nFormat profile : LC\nFormat settings, SBR : No\nCodec ID : 40\nDuration : 1h 39mn\nBit rate mode : Variable\nBit rate : 160 Kbps\nMaximum bit rate : 219 Kbps\nChannel(s) : 2 channels\nChannel positions : Front: L R\nSampling rate : 48.0 KHz\nStream size : 113 MiB (16%)\nLanguage : English\n\n\n\n\n\n\n\n================================== &lt;a href=&quot;\nhttp://thepiratebay.se/user/hiest&quot; rel=&quot;nofollow&quot; target=&quot;_NEW&quot;&gt;\nhttp://thepiratebay.se/user/hiest&lt;/a&gt;\n==================================\n\n\n\n\n\n\n\n\nScreens:\n &lt;a href=&quot;\nhttp://www.postimg.com/image/24000/23291.jpg&quot; rel=&quot;nofollow&quot; target=&quot;_NEW&quot;&gt;\nhttp://www.postimg.com/image/24000/23291.jpg&lt;/a&gt;\n &lt;a href=&quot;\nhttp://www.postimg.com/image/24000/23292.jpg&quot; rel=&quot;nofollow&quot; target=&quot;_NEW&quot;&gt;\nhttp://www.postimg.com/image/24000/23292.jpg&lt;/a&gt;\n\n","torrent":{"xt":"urn:btih:3de0bc3b2316ba2657e758dcde60de7ac74cb41b","amp;dn":"Lottery.Ticket.2010.DvdRip.x264.LKRG","amp;tr":["udp%3A%2F%2Ftracker.openbittorrent.com%3A80","udp%3A%2F%2Fopen.demonii.com%3A1337","udp%3A%2F%2Ftracker.coppersurfer.tk%3A6969","udp%3A%2F%2Fexodus.desync.com%3A6969"],"infoHash":"3de0bc3b2316ba2657e758dcde60de7ac74cb41b","infoHashBuffer":{"type":"Buffer","data":[61,224,188,59,35,22,186,38,87,231,88,220,222,96,222,122,199,76,180,27]},"announce":[],"urlList":[]}}